# xmcd
#
# Track frame offsets: 
#        150
#        22528
#        54982
#        73796
#        90386
#        110433
#        125746
#        147242
#        159571
#        188530
#        201517
#        221341
#        236935
#        252154
#        268242
#        289437
#        309939
#        339823
#
# Disc length: 4768 seconds
#
# Revision: 0
# Processed by: cddbd v1.5.2PL0 Copyright (c) Steve Scherf et al.
# Submitted via: ExactAudioCopy v1.3
#
DISCID=06129e12
DTITLE=Various Artist - Akella Presents - vol. 214 - Blues-Rock  CD2
DYEAR=2019
DGENRE=Blues
TTITLE0=Matty T Wall - Crossroads
TTITLE1=John Verity Band - Prove Your Love
TTITLE2=Joost De Lange - You've Gott It All
TTITLE3=Gerry Lane - Keep Outta My Way
TTITLE4=Malted Milk - Daddy Has a Gun
TTITLE5=Quiet The Dog - Straight For The Door
TTITLE6=Andreas Diehlmann Band - Long Forgotten Nightmare
TTITLE7=Tyler Bryant and The Shakedown - Drive Me Mad
TTITLE8=The Road Dogs - Waiting For The Wind
TTITLE9=Cirkus Prьtz - Zombie Stomp
TTITLE10=Swilly - That 70's Song
TTITLE11=Dirty Wolfgang - Creepy Animals
TTITLE12=Juniper Inc. - Good Girls With Bad Habits
TTITLE13=Peer Gynt - Mindvibes
TTITLE14=Killer - Rock Hasn't Enough
TTITLE15=ZZ Top - Pincushion
TTITLE16=West Water Outlaws - Misery Loves Company
TTITLE17=Chris Wragg And Greg Copeland - Deep In The Blood
EXTD=
EXTT0=
EXTT1=
EXTT2=
EXTT3=
EXTT4=
EXTT5=
EXTT6=
EXTT7=
EXTT8=
EXTT9=
EXTT10=
EXTT11=
EXTT12=
EXTT13=
EXTT14=
EXTT15=
EXTT16=
EXTT17=
PLAYORDER=
